<svg xmlns="http://www.w3.org/2000/svg" viewBox="0 0 380 100" fill="none">
  <rect width="380" height="100" fill="#0a0a12"/>
  <!-- QR-style dot for "i" (5×5 grid) -->
  <g transform="translate(18, 14)">
    <rect x="0" y="0" width="6" height="6" fill="#fff"/>
    <rect x="6" y="0" width="6" height="6" fill="#0a0a12"/>
    <rect x="12" y="0" width="6" height="6" fill="#fff"/>
    <rect x="18" y="0" width="6" height="6" fill="#0a0a12"/>
    <rect x="24" y="0" width="6" height="6" fill="#fff"/>
    <rect x="0" y="6" width="6" height="6" fill="#0a0a12"/>
    <rect x="6" y="6" width="6" height="6" fill="#fff"/>
    <rect x="12" y="6" width="6" height="6" fill="#0a0a12"/>
    <rect x="18" y="6" width="6" height="6" fill="#fff"/>
    <rect x="24" y="6" width="6" height="6" fill="#0a0a12"/>
    <rect x="0" y="12" width="6" height="6" fill="#fff"/>
    <rect x="6" y="12" width="6" height="6" fill="#fff"/>
    <rect x="12" y="12" width="6" height="6" fill="#0a0a12"/>
    <rect x="18" y="12" width="6" height="6" fill="#fff"/>
    <rect x="24" y="12" width="6" height="6" fill="#fff"/>
    <rect x="0" y="18" width="6" height="6" fill="#0a0a12"/>
    <rect x="6" y="18" width="6" height="6" fill="#fff"/>
    <rect x="12" y="18" width="6" height="6" fill="#fff"/>
    <rect x="18" y="18" width="6" height="6" fill="#0a0a12"/>
    <rect x="24" y="18" width="6" height="6" fill="#0a0a12"/>
    <rect x="0" y="24" width="6" height="6" fill="#fff"/>
    <rect x="6" y="24" width="6" height="6" fill="#0a0a12"/>
    <rect x="12" y="24" width="6" height="6" fill="#fff"/>
    <rect x="18" y="24" width="6" height="6" fill="#0a0a12"/>
    <rect x="24" y="24" width="6" height="6" fill="#fff"/>
  </g>
  <!-- "i" stem -->
  <rect x="50" y="28" width="4" height="32" rx="1" fill="#fff"/>
  <!-- "Medizin" wordmark -->
  <text x="62" y="58" font-family="system-ui, -apple-system, 'Segoe UI', Arial, sans-serif" font-weight="700" font-size="38" fill="#fff" style="font-style: italic; letter-spacing: -0.02em;">Medizin</text>
  <!-- "z" flourish: stroke sweeping up over "i" -->
  <path d="M 218 52 Q 235 38 252 52" stroke="#fff" stroke-width="3" fill="none" stroke-linecap="round"/>
  <!-- Tagline -->
  <text x="190" y="82" text-anchor="middle" font-family="system-ui, Arial, sans-serif" font-size="11" fill="#fff" letter-spacing="0.15em">HEALTHCARE DIGITALIZATION</text>
</svg>
